<svg width="327" height="79" viewBox="0 0 327 79" fill="none" xmlns="http://www.w3.org/2000/svg">
<g filter="url(#filter0_d)">
<rect x="9" y="5" width="297" height="60" rx="5" fill="url(#paint0_linear)"/>
<rect x="6.5" y="2.5" width="302" height="65" rx="7.5" stroke="#FFC828" stroke-width="5"/>
</g>
<g filter="url(#filter1_i)">
<path d="M39.79 39.1689C39.5 41.7148 38.5601 43.729 36.9702 45.2114C35.3911 46.6831 33.3877 47.3867 30.96 47.3223C28.876 47.2793 27.2646 46.5918 26.126 45.2598C24.9873 43.9277 24.3857 42.0801 24.3213 39.7168C24.2998 38.9111 24.3428 38.1001 24.4502 37.2837L25.0464 33.4004C25.5513 30.0811 26.6416 27.5405 28.3174 25.7788C30.0039 24.0171 32.0933 23.1631 34.5854 23.2168C36.7661 23.249 38.4419 23.9741 39.6128 25.3921C40.7837 26.7993 41.3691 28.8457 41.3691 31.5312L36.7124 31.5151L36.7446 29.9199C36.7124 28.1152 35.8691 27.186 34.2148 27.1323C32.9365 27.0894 31.9268 27.5566 31.1855 28.5342C30.4443 29.501 29.9448 31.0747 29.687 33.2554L29.1069 37.2998C28.9565 38.5889 28.876 39.4321 28.8652 39.8296C28.7578 42.1499 29.5742 43.3477 31.3145 43.4229C32.3994 43.4766 33.2642 43.1919 33.9087 42.5688C34.5532 41.9351 35.0044 40.8125 35.2622 39.2012L39.79 39.1689ZM49.6836 47.3223C47.6211 47.2793 45.9829 46.6025 44.769 45.292C43.5659 43.9814 42.9106 42.1606 42.8032 39.8296C42.7603 39.0239 42.7925 38.2075 42.8999 37.3804L43.4961 33.481C43.8076 31.397 44.4146 29.5493 45.3169 27.938C46.2192 26.3267 47.3418 25.1289 48.6846 24.3447C50.0273 23.5605 51.542 23.1846 53.2285 23.2168C55.3125 23.2598 56.9453 23.9741 58.127 25.3599C59.3193 26.7349 59.9585 28.6201 60.0444 31.0156C60.0659 31.918 60.0176 32.772 59.8994 33.5776L59.3677 37.1709C58.8843 40.3936 57.7939 42.9072 56.0967 44.7119C54.4102 46.5059 52.2725 47.376 49.6836 47.3223ZM55.2749 33.4165C55.4038 32.3101 55.4683 31.4561 55.4683 30.8545C55.4146 28.459 54.5498 27.229 52.874 27.1646C51.585 27.1108 50.543 27.5996 49.748 28.6309C48.9639 29.6514 48.416 31.2573 48.1045 33.4487L47.5405 37.3965C47.4116 38.46 47.3633 39.2925 47.3955 39.894C47.4492 42.1499 48.3354 43.3154 50.0542 43.3906C51.2788 43.4336 52.2832 42.9824 53.0674 42.0371C53.8516 41.0918 54.3994 39.5449 54.7109 37.3965L55.2749 33.4165ZM71.0981 23.5391L72.4678 40.4097L79.6704 23.5391H85.7612L81.6846 47H77.0439L78.1719 40.5063L80.2021 31.2412L73.0156 47H69.8735L68.1011 30.7095L66.7637 40.8125L65.7002 47H61.0757L65.1362 23.5391H71.0981ZM91.562 38.75L90.1279 47H85.5034L89.564 23.5391L97.0889 23.5552C99.1406 23.6196 100.747 24.3555 101.907 25.7627C103.078 27.1592 103.572 28.9639 103.389 31.1768C103.174 33.4756 102.304 35.3179 100.779 36.7036C99.2534 38.0786 97.3091 38.7661 94.9458 38.7661L91.562 38.75ZM92.2388 34.8022L95.2197 34.8345C96.3691 34.813 97.2607 34.3726 97.8945 33.5132C98.5283 32.6431 98.8291 31.4775 98.7969 30.0166C98.7754 29.2754 98.5981 28.6846 98.2651 28.2441C97.9321 27.8037 97.4702 27.562 96.8794 27.519L93.5117 27.4868L92.2388 34.8022ZM112.348 38.4277H109.996L108.513 47H103.889L107.949 23.5391L115.039 23.5552C117.134 23.6196 118.74 24.2642 119.857 25.4888C120.974 26.7134 121.447 28.3838 121.275 30.5C121.006 33.7119 119.545 35.9463 116.892 37.2031L119.245 46.7422V47H114.282L112.348 38.4277ZM110.672 34.48L113.105 34.5122C114.223 34.4907 115.104 34.0503 115.748 33.1909C116.393 32.3208 116.709 31.1714 116.699 29.7427C116.656 28.3354 116.038 27.5889 114.846 27.5029L111.897 27.4868L110.672 34.48ZM133.505 42.1982H127.269L125.223 47H120.195L131.378 23.5391H135.616L138.693 47H133.908L133.505 42.1982ZM128.961 38.2505H133.183L132.522 29.936L128.961 38.2505ZM149.505 38.4277H147.153L145.67 47H141.046L145.106 23.5391L152.196 23.5552C154.291 23.6196 155.897 24.2642 157.014 25.4888C158.131 26.7134 158.604 28.3838 158.432 30.5C158.164 33.7119 156.703 35.9463 154.049 37.2031L156.402 46.7422V47H151.439L149.505 38.4277ZM147.83 34.48L150.263 34.5122C151.38 34.4907 152.261 34.0503 152.905 33.1909C153.55 32.3208 153.867 31.1714 153.856 29.7427C153.813 28.3354 153.195 27.5889 152.003 27.5029L149.054 27.4868L147.83 34.48ZM178.203 42.1982H171.967L169.921 47H164.894L176.076 23.5391H180.314L183.392 47H178.606L178.203 42.1982ZM173.659 38.2505H177.881L177.22 29.936L173.659 38.2505ZM201.503 44.3413C200.633 45.3081 199.5 46.0547 198.103 46.5811C196.707 47.0967 195.208 47.3438 193.607 47.3223C192.2 47.3115 190.981 47.0054 189.95 46.4038C188.918 45.7915 188.118 44.9106 187.549 43.7612C186.99 42.6011 186.689 41.269 186.646 39.7651C186.614 38.9487 186.652 38.1162 186.759 37.2676L187.339 33.3843C187.833 30.1187 188.897 27.5942 190.53 25.811C192.163 24.0278 194.29 23.1631 196.911 23.2168C199.145 23.2598 200.826 23.9365 201.954 25.2471C203.093 26.5469 203.673 28.4751 203.694 31.0317L199.199 31.0156L199.15 29.7266C199.011 28.0508 198.189 27.186 196.685 27.1323C194.461 27.0464 193 28.5127 192.302 31.5312L192.061 32.7397L191.416 37.2676C191.276 38.2988 191.223 39.1797 191.255 39.9102C191.309 41.1133 191.577 41.9888 192.061 42.5366C192.555 43.0737 193.248 43.353 194.139 43.3745C194.977 43.396 195.912 43.1221 196.943 42.5527L197.765 38.2344H194.526L195.154 34.6572H202.985L201.503 44.3413ZM212.363 47.3223C210.301 47.2793 208.663 46.6025 207.449 45.292C206.246 43.9814 205.59 42.1606 205.483 39.8296C205.44 39.0239 205.472 38.2075 205.58 37.3804L206.176 33.481C206.487 31.397 207.094 29.5493 207.997 27.938C208.899 26.3267 210.021 25.1289 211.364 24.3447C212.707 23.5605 214.222 23.1846 215.908 23.2168C217.992 23.2598 219.625 23.9741 220.807 25.3599C221.999 26.7349 222.638 28.6201 222.724 31.0156C222.746 31.918 222.697 32.772 222.579 33.5776L222.047 37.1709C221.564 40.3936 220.474 42.9072 218.776 44.7119C217.09 46.5059 214.952 47.376 212.363 47.3223ZM217.955 33.4165C218.083 32.3101 218.148 31.4561 218.148 30.8545C218.094 28.459 217.229 27.229 215.554 27.1646C214.265 27.1108 213.223 27.5996 212.428 28.6309C211.644 29.6514 211.096 31.2573 210.784 33.4487L210.22 37.3965C210.091 38.46 210.043 39.2925 210.075 39.894C210.129 42.1499 211.015 43.3154 212.734 43.3906C213.958 43.4336 214.963 42.9824 215.747 42.0371C216.531 41.0918 217.079 39.5449 217.391 37.3965L217.955 33.4165ZM232.231 38.4277H229.878L228.396 47H223.771L227.832 23.5391L234.922 23.5552C237.017 23.6196 238.623 24.2642 239.74 25.4888C240.857 26.7134 241.33 28.3838 241.158 30.5C240.889 33.7119 239.428 35.9463 236.775 37.2031L239.127 46.7422V47H234.165L232.231 38.4277ZM230.555 34.48L232.988 34.5122C234.105 34.4907 234.986 34.0503 235.631 33.1909C236.275 32.3208 236.592 31.1714 236.582 29.7427C236.539 28.3354 235.921 27.5889 234.729 27.5029L231.78 27.4868L230.555 34.48ZM253.388 42.1982H247.152L245.105 47H240.078L251.261 23.5391H255.499L258.576 47H253.791L253.388 42.1982ZM248.844 38.2505H253.065L252.405 29.936L248.844 38.2505ZM266.488 39.7812H262.798L265.102 23.5391H269.823L266.488 39.7812ZM261.332 44.873C261.332 44.1318 261.562 43.5195 262.024 43.0361C262.497 42.5527 263.077 42.3003 263.765 42.2788C264.452 42.2788 265.027 42.5098 265.489 42.9717C265.951 43.4336 266.182 44.0083 266.182 44.6958C266.182 45.437 265.956 46.0493 265.505 46.5327C265.054 47.0161 264.474 47.2686 263.765 47.29C263.045 47.29 262.459 47.0537 262.008 46.5811C261.557 46.1084 261.332 45.5391 261.332 44.873Z" fill="#275A70"/>
</g>
<path d="M303.718 41.6706C303.174 40.4339 301.941 38.91 299.092 40.1623L296.581 41.2659L294.189 35.8242C292.748 32.5467 289.172 32.3044 287.356 34.0372C286.041 35.2918 285.444 37.2917 286.308 39.2586L294.792 58.6794C292.726 57.1143 288.779 57.132 287.013 58.9512L287.059 58.8814C285.182 60.8138 285.497 63.5527 288.344 65.9458L303.538 77.9041L325.305 68.3352L325.423 66.4386C325.731 61.5038 324.854 56.5671 322.864 52.0407L321.216 48.2928C321.131 48.0986 321.037 47.9087 320.936 47.7239C319.787 45.6231 317.215 44.7572 315.02 45.712L313.384 46.4233L311.535 42.2183C310.726 40.378 308.57 39.5408 306.735 40.3632L303.718 41.6706Z" fill="white"/>
<path d="M323.865 51.6001L322.218 47.8523C322.12 47.6303 322.012 47.4102 321.896 47.1984C321.209 45.9419 320.081 44.9959 318.72 44.5347C317.364 44.0749 315.894 44.1363 314.581 44.7075L313.946 44.9836L313.135 43.1381C313.134 43.1378 313.134 43.1375 313.134 43.1373L312.536 41.7776C312.026 40.6158 311.092 39.7245 309.906 39.2679C308.727 38.8137 307.443 38.8466 306.292 39.3606L304.185 40.2732C303.796 39.7189 303.322 39.2958 302.771 39.0102C301.618 38.4137 300.231 38.4638 298.649 39.1595L297.141 39.8222L295.19 35.3834C294.396 33.5764 292.921 32.3365 291.145 31.9815C289.476 31.6478 287.776 32.1201 286.597 33.2447C284.829 34.9322 284.321 37.4659 285.302 39.6974L292.694 56.6176C292.075 56.4923 291.423 56.435 290.761 56.4511C289.042 56.4935 287.496 57.0403 286.461 57.962C286.393 58.006 286.329 58.0582 286.271 58.1185C285.23 59.1896 284.718 60.4854 284.788 61.8656C284.875 63.5904 285.86 65.2914 287.637 66.7847C287.646 66.7922 287.655 66.7997 287.664 66.8069L302.858 78.7653C303.055 78.9201 303.294 78.9999 303.536 78.9999C303.685 78.9999 303.835 78.9695 303.977 78.9073L325.744 69.3385C326.119 69.1736 326.371 68.8129 326.396 68.4038L326.515 66.507C326.832 61.4205 325.916 56.2658 323.865 51.6001ZM314.989 52.8008C315.169 53.2113 315.571 53.4557 315.992 53.4557C316.14 53.4557 316.289 53.4259 316.433 53.3628C316.987 53.1194 317.238 52.4728 316.995 51.9189L314.828 46.9895L315.455 46.7169C317.149 45.9799 319.092 46.6388 319.973 48.2501C320.059 48.4069 320.139 48.5696 320.211 48.7339L321.859 52.4818C323.77 56.8288 324.624 61.6314 324.328 66.3705L324.251 67.601L303.697 76.6368L289.034 65.0962C287.762 64.023 287.031 62.8367 286.976 61.7548C286.941 61.0534 287.181 60.4002 287.691 59.8103C287.728 59.7811 287.763 59.7492 287.797 59.7147C289.108 58.3639 292.379 58.2705 294.087 59.5231L297.861 63.1479C298.074 63.3519 298.347 63.4533 298.62 63.4533C298.908 63.4533 299.195 63.3406 299.411 63.1167C299.83 62.6803 299.816 61.9866 299.379 61.5675L295.707 58.0406L287.31 38.8177C286.574 37.1436 287.241 35.66 288.111 34.8299C288.763 34.2074 289.761 33.9393 290.716 34.1302C291.798 34.3464 292.674 35.1046 293.184 36.2651L299.546 50.7352C299.726 51.1457 300.128 51.3902 300.549 51.3902C300.696 51.3902 300.846 51.3603 300.99 51.2972C301.543 51.0537 301.795 50.4073 301.552 49.8533L298.024 41.828L299.531 41.1653C300.477 40.7495 301.229 40.6791 301.764 40.9561C302.143 41.1523 302.462 41.541 302.713 42.1116L306.464 50.6451C306.645 51.0557 307.047 51.3001 307.468 51.3001C307.615 51.3001 307.765 51.2703 307.908 51.2072C308.462 50.9636 308.714 50.3172 308.47 49.7633L305.162 42.238L307.169 41.3684C307.174 41.3666 307.178 41.3648 307.182 41.3628C307.798 41.0866 308.486 41.0687 309.119 41.3124C309.756 41.5575 310.257 42.0358 310.531 42.6592L314.989 52.8008Z" fill="black"/>
<path d="M319.386 68.6534C318.964 68.6534 318.562 68.4085 318.382 67.9976C318.139 67.4434 318.391 66.7972 318.945 66.5542L320.026 66.0801C320.58 65.837 321.226 66.0892 321.469 66.6434C321.712 67.1976 321.46 67.8438 320.906 68.0868L319.825 68.5608C319.682 68.6237 319.532 68.6534 319.386 68.6534Z" fill="black"/>
<path d="M304.561 75.1784C304.139 75.1784 303.738 74.9336 303.557 74.5226C303.314 73.9684 303.566 73.3222 304.121 73.0792L315.663 68.0166C316.218 67.7736 316.864 68.0258 317.107 68.5798C317.35 69.134 317.098 69.7802 316.543 70.0232L305.001 75.086C304.858 75.1487 304.708 75.1784 304.561 75.1784Z" fill="black"/>
<path d="M288.279 29.8261C287.77 29.8261 287.314 29.4697 287.207 28.9518L286.456 25.3172C286.334 24.7246 286.715 24.145 287.308 24.0228C287.9 23.9007 288.48 24.2817 288.602 24.8742L289.353 28.5088C289.475 29.1014 289.094 29.681 288.501 29.8034C288.427 29.8187 288.352 29.8261 288.279 29.8261Z" fill="black"/>
<path d="M276.852 29.6588C276.655 29.6588 276.455 29.6057 276.276 29.4944L275.519 29.0258C275.005 28.7072 274.846 28.032 275.164 27.5175C275.483 27.003 276.158 26.8442 276.673 27.1629L277.429 27.6315C277.944 27.9501 278.103 28.6254 277.784 29.1399C277.577 29.4746 277.218 29.6588 276.852 29.6588Z" fill="black"/>
<path d="M282.85 33.6328C282.643 33.6328 282.434 33.5745 282.249 33.4524L279.912 31.9152C279.406 31.5827 279.266 30.9033 279.598 30.3978C279.931 29.8922 280.61 29.7519 281.116 30.0844L283.453 31.6217C283.959 31.9542 284.099 32.6336 283.766 33.1391C283.556 33.4591 283.206 33.6328 282.85 33.6328Z" fill="black"/>
<path d="M278.063 40.9123C277.555 40.9123 277.099 40.5559 276.992 40.038C276.869 39.4454 277.25 38.8658 277.843 38.7435L281.478 37.993C282.07 37.8708 282.65 38.2519 282.772 38.8444C282.895 39.437 282.513 40.0166 281.921 40.139L278.286 40.8895C278.211 40.9048 278.137 40.9123 278.063 40.9123Z" fill="black"/>
<path d="M282.892 49.5979C282.685 49.5979 282.476 49.5396 282.291 49.4176C281.785 49.085 281.645 48.4056 281.977 47.9001L284.017 44.7994C284.349 44.2939 285.028 44.1534 285.534 44.4861C286.04 44.8186 286.18 45.498 285.847 46.0035L283.808 49.1042C283.598 49.4242 283.248 49.5979 282.892 49.5979Z" fill="black"/>
<path d="M298.61 36.3978C298.102 36.3978 297.645 36.0414 297.538 35.5236C297.416 34.931 297.797 34.3514 298.39 34.229L300.813 33.7287C301.406 33.6063 301.985 33.9875 302.108 34.5801C302.23 35.1727 301.849 35.7523 301.256 35.8747L298.833 36.375C298.758 36.3904 298.684 36.3978 298.61 36.3978Z" fill="black"/>
<path d="M305.427 34.9908C304.918 34.9908 304.462 34.6344 304.355 34.1166C304.233 33.524 304.614 32.9444 305.206 32.822L305.964 32.6656C306.557 32.5434 307.136 32.9245 307.258 33.5171C307.381 34.1097 306.999 34.6893 306.407 34.8116L305.649 34.968C305.575 34.9833 305.5 34.9908 305.427 34.9908Z" fill="black"/>
<path d="M294.81 30.9712C294.603 30.9712 294.394 30.9129 294.209 30.7908C293.703 30.4583 293.563 29.7789 293.895 29.2734L295.935 26.1727C296.267 25.6672 296.946 25.5267 297.452 25.8594C297.958 26.1919 298.098 26.8713 297.765 27.3768L295.726 30.4775C295.516 30.7975 295.166 30.9712 294.81 30.9712Z" fill="black"/>
<defs>
<filter id="filter0_d" x="0" y="0" width="315" height="78" filterUnits="userSpaceOnUse" color-interpolation-filters="sRGB">
<feFlood flood-opacity="0" result="BackgroundImageFix"/>
<feColorMatrix in="SourceAlpha" type="matrix" values="0 0 0 0 0 0 0 0 0 0 0 0 0 0 0 0 0 0 127 0"/>
<feOffset dy="4"/>
<feGaussianBlur stdDeviation="2"/>
<feColorMatrix type="matrix" values="0 0 0 0 0 0 0 0 0 0 0 0 0 0 0 0 0 0 0.25 0"/>
<feBlend mode="normal" in2="BackgroundImageFix" result="effect1_dropShadow"/>
<feBlend mode="normal" in="SourceGraphic" in2="effect1_dropShadow" result="shape"/>
</filter>
<filter id="filter1_i" x="24.3164" y="23.2144" width="245.507" height="28.1119" filterUnits="userSpaceOnUse" color-interpolation-filters="sRGB">
<feFlood flood-opacity="0" result="BackgroundImageFix"/>
<feBlend mode="normal" in="SourceGraphic" in2="BackgroundImageFix" result="shape"/>
<feColorMatrix in="SourceAlpha" type="matrix" values="0 0 0 0 0 0 0 0 0 0 0 0 0 0 0 0 0 0 127 0" result="hardAlpha"/>
<feOffset dy="4"/>
<feGaussianBlur stdDeviation="2"/>
<feComposite in2="hardAlpha" operator="arithmetic" k2="-1" k3="1"/>
<feColorMatrix type="matrix" values="0 0 0 0 0 0 0 0 0 0 0 0 0 0 0 0 0 0 0.25 0"/>
<feBlend mode="normal" in2="shape" result="effect1_innerShadow"/>
</filter>
<linearGradient id="paint0_linear" x1="157.5" y1="5" x2="157.5" y2="65" gradientUnits="userSpaceOnUse">
<stop stop-color="#FFF946"/>
<stop offset="1" stop-color="#FFC828"/>
</linearGradient>
</defs>
</svg>
