<svg width="337" height="78" viewBox="0 0 337 78" fill="none" xmlns="http://www.w3.org/2000/svg">
<g filter="url(#filter0_d)">
<rect x="9" y="5" width="319" height="60" rx="5" fill="url(#paint0_linear)"/>
<rect x="6.5" y="2.5" width="324" height="65" rx="7.5" stroke="#FFC828" stroke-width="5"/>
</g>
<g filter="url(#filter1_i)">
<path d="M89.2812 39.4062C89 41.875 88.0885 43.8281 86.5469 45.2656C85.0156 46.6927 83.0729 47.375 80.7188 47.3125C78.6979 47.2708 77.1354 46.6042 76.0312 45.3125C74.9271 44.0208 74.3438 42.2292 74.2812 39.9375C74.2604 39.1562 74.3021 38.3698 74.4062 37.5781L74.9844 33.8125C75.474 30.5938 76.5312 28.1302 78.1562 26.4219C79.7917 24.7135 81.8177 23.8854 84.2344 23.9375C86.349 23.9688 87.974 24.6719 89.1094 26.0469C90.2448 27.4115 90.8125 29.3958 90.8125 32L86.2969 31.9844L86.3281 30.4375C86.2969 28.6875 85.4792 27.7865 83.875 27.7344C82.6354 27.6927 81.6562 28.1458 80.9375 29.0938C80.2188 30.0312 79.7344 31.5573 79.4844 33.6719L78.9219 37.5938C78.776 38.8438 78.6979 39.6615 78.6875 40.0469C78.5833 42.2969 79.375 43.4583 81.0625 43.5312C82.1146 43.5833 82.9531 43.3073 83.5781 42.7031C84.2031 42.0885 84.6406 41 84.8906 39.4375L89.2812 39.4062ZM98.875 47.3125C96.875 47.2708 95.2865 46.6146 94.1094 45.3438C92.9427 44.0729 92.3073 42.3073 92.2031 40.0469C92.1615 39.2656 92.1927 38.474 92.2969 37.6719L92.875 33.8906C93.1771 31.8698 93.7656 30.0781 94.6406 28.5156C95.5156 26.9531 96.6042 25.7917 97.9062 25.0312C99.2083 24.2708 100.677 23.9062 102.312 23.9375C104.333 23.9792 105.917 24.6719 107.062 26.0156C108.219 27.349 108.839 29.1771 108.922 31.5C108.943 32.375 108.896 33.2031 108.781 33.9844L108.266 37.4688C107.797 40.5938 106.74 43.0312 105.094 44.7812C103.458 46.5208 101.385 47.3646 98.875 47.3125ZM104.297 33.8281C104.422 32.7552 104.484 31.9271 104.484 31.3438C104.432 29.0208 103.594 27.8281 101.969 27.7656C100.719 27.7135 99.7083 28.1875 98.9375 29.1875C98.1771 30.1771 97.6458 31.7344 97.3438 33.8594L96.7969 37.6875C96.6719 38.7188 96.625 39.526 96.6562 40.1094C96.7083 42.2969 97.5677 43.4271 99.2344 43.5C100.422 43.5417 101.396 43.1042 102.156 42.1875C102.917 41.2708 103.448 39.7708 103.75 37.6875L104.297 33.8281ZM119.641 24.25L120.969 40.6094L127.953 24.25H133.859L129.906 47H125.406L126.5 40.7031L128.469 31.7188L121.5 47H118.453L116.734 31.2031L115.438 41L114.406 47H109.922L113.859 24.25H119.641ZM139.484 39L138.094 47H133.609L137.547 24.25L144.844 24.2656C146.833 24.3281 148.391 25.0417 149.516 26.4062C150.651 27.7604 151.13 29.5104 150.953 31.6562C150.745 33.8854 149.901 35.6719 148.422 37.0156C146.943 38.349 145.057 39.0156 142.766 39.0156L139.484 39ZM140.141 35.1719L143.031 35.2031C144.146 35.1823 145.01 34.7552 145.625 33.9219C146.24 33.0781 146.531 31.9479 146.5 30.5312C146.479 29.8125 146.307 29.2396 145.984 28.8125C145.661 28.3854 145.214 28.151 144.641 28.1094L141.375 28.0781L140.141 35.1719ZM159.641 38.6875H157.359L155.922 47H151.438L155.375 24.25L162.25 24.2656C164.281 24.3281 165.839 24.9531 166.922 26.1406C168.005 27.3281 168.464 28.9479 168.297 31C168.036 34.1146 166.62 36.2812 164.047 37.5L166.328 46.75V47H161.516L159.641 38.6875ZM158.016 34.8594L160.375 34.8906C161.458 34.8698 162.312 34.4427 162.938 33.6094C163.562 32.7656 163.87 31.651 163.859 30.2656C163.818 28.901 163.219 28.1771 162.062 28.0938L159.203 28.0781L158.016 34.8594ZM180.156 42.3438H174.109L172.125 47H167.25L178.094 24.25H182.203L185.188 47H180.547L180.156 42.3438ZM175.75 38.5156H179.844L179.203 30.4531L175.75 38.5156ZM195.672 38.6875H193.391L191.953 47H187.469L191.406 24.25L198.281 24.2656C200.312 24.3281 201.87 24.9531 202.953 26.1406C204.036 27.3281 204.495 28.9479 204.328 31C204.068 34.1146 202.651 36.2812 200.078 37.5L202.359 46.75V47H197.547L195.672 38.6875ZM194.047 34.8594L196.406 34.8906C197.49 34.8698 198.344 34.4427 198.969 33.6094C199.594 32.7656 199.901 31.651 199.891 30.2656C199.849 28.901 199.25 28.1771 198.094 28.0938L195.234 28.0781L194.047 34.8594ZM223.5 42.3438H217.453L215.469 47H210.594L221.438 24.25H225.547L228.531 47H223.891L223.5 42.3438ZM219.094 38.5156H223.188L222.547 30.4531L219.094 38.5156ZM246.094 44.4219C245.25 45.3594 244.151 46.0833 242.797 46.5938C241.443 47.0938 239.99 47.3333 238.438 47.3125C237.073 47.3021 235.891 47.0052 234.891 46.4219C233.891 45.8281 233.115 44.974 232.562 43.8594C232.021 42.7344 231.729 41.4427 231.688 39.9844C231.656 39.1927 231.693 38.3854 231.797 37.5625L232.359 33.7969C232.839 30.6302 233.87 28.1823 235.453 26.4531C237.036 24.724 239.099 23.8854 241.641 23.9375C243.807 23.9792 245.438 24.6354 246.531 25.9062C247.635 27.1667 248.198 29.0365 248.219 31.5156L243.859 31.5L243.812 30.25C243.677 28.625 242.88 27.7865 241.422 27.7344C239.266 27.651 237.849 29.0729 237.172 32L236.938 33.1719L236.312 37.5625C236.177 38.5625 236.125 39.4167 236.156 40.125C236.208 41.2917 236.469 42.1406 236.938 42.6719C237.417 43.1927 238.089 43.4635 238.953 43.4844C239.766 43.5052 240.672 43.2396 241.672 42.6875L242.469 38.5H239.328L239.938 35.0312H247.531L246.094 44.4219ZM256.625 47.3125C254.625 47.2708 253.036 46.6146 251.859 45.3438C250.693 44.0729 250.057 42.3073 249.953 40.0469C249.911 39.2656 249.943 38.474 250.047 37.6719L250.625 33.8906C250.927 31.8698 251.516 30.0781 252.391 28.5156C253.266 26.9531 254.354 25.7917 255.656 25.0312C256.958 24.2708 258.427 23.9062 260.062 23.9375C262.083 23.9792 263.667 24.6719 264.812 26.0156C265.969 27.349 266.589 29.1771 266.672 31.5C266.693 32.375 266.646 33.2031 266.531 33.9844L266.016 37.4688C265.547 40.5938 264.49 43.0312 262.844 44.7812C261.208 46.5208 259.135 47.3646 256.625 47.3125ZM262.047 33.8281C262.172 32.7552 262.234 31.9271 262.234 31.3438C262.182 29.0208 261.344 27.8281 259.719 27.7656C258.469 27.7135 257.458 28.1875 256.688 29.1875C255.927 30.1771 255.396 31.7344 255.094 33.8594L254.547 37.6875C254.422 38.7188 254.375 39.526 254.406 40.1094C254.458 42.2969 255.318 43.4271 256.984 43.5C258.172 43.5417 259.146 43.1042 259.906 42.1875C260.667 41.2708 261.198 39.7708 261.5 37.6875L262.047 33.8281ZM275.891 38.6875H273.609L272.172 47H267.688L271.625 24.25L278.5 24.2656C280.531 24.3281 282.089 24.9531 283.172 26.1406C284.255 27.3281 284.714 28.9479 284.547 31C284.286 34.1146 282.87 36.2812 280.297 37.5L282.578 46.75V47H277.766L275.891 38.6875ZM274.266 34.8594L276.625 34.8906C277.708 34.8698 278.562 34.4427 279.188 33.6094C279.812 32.7656 280.12 31.651 280.109 30.2656C280.068 28.901 279.469 28.1771 278.312 28.0938L275.453 28.0781L274.266 34.8594ZM296.406 42.3438H290.359L288.375 47H283.5L294.344 24.25H298.453L301.438 47H296.797L296.406 42.3438ZM292 38.5156H296.094L295.453 30.4531L292 38.5156ZM309.109 40H305.531L307.766 24.25H312.344L309.109 40ZM304.109 44.9375C304.109 44.2188 304.333 43.625 304.781 43.1562C305.24 42.6875 305.802 42.4427 306.469 42.4219C307.135 42.4219 307.693 42.6458 308.141 43.0938C308.589 43.5417 308.812 44.099 308.812 44.7656C308.812 45.4844 308.594 46.0781 308.156 46.5469C307.719 47.0156 307.156 47.2604 306.469 47.2812C305.771 47.2812 305.203 47.0521 304.766 46.5938C304.328 46.1354 304.109 45.5833 304.109 44.9375Z" fill="#275A70"/>
</g>
<g filter="url(#filter2_i)">
<path d="M62.0502 24.8366C59.0226 29.2451 57.5349 34.3572 55.4442 39.1877C53.7015 43.213 53.8313 43.275 49.3023 43.2854C43.0053 43.2996 36.7082 43.2699 30.4118 43.3319C28.9932 43.3455 28.3257 43.0612 28.2409 41.4504C27.8947 34.9052 27.22 28.3722 27.3047 21.8115C27.3302 19.8317 26.7108 19.0551 24.7009 19.2793C23.5411 19.4085 22.3539 19.2651 21.1805 19.2858C20.6107 19.2955 20.095 19.0738 20.0155 18.586C19.9183 17.989 20.2841 17.4876 20.9699 17.3532C23.4557 16.8706 25.965 16.9449 28.4554 17.2059C29.5141 17.317 29.1393 18.3554 29.2253 19.0486C29.8238 23.8862 29.8245 23.9327 34.6612 23.8577C43.7921 23.7149 52.9225 23.5134 62.0528 23.3363L62.0502 24.8366Z" fill="#285B72"/>
<path d="M51.4248 48.4544C51.4156 50.9136 49.4162 52.7104 47.1833 52.8416C45.1186 52.9624 44.2581 51.7981 44.1192 50.0814C43.9425 47.8768 46.18 45.7523 48.422 45.8848C50.2213 45.992 51.2963 46.9742 51.4248 48.4544Z" fill="#285B72"/>
<path d="M34.2751 49.2971C34.2465 51.6554 32.5149 53.3612 30.1732 53.303C28.2865 53.2578 27.5218 52.1465 27.4892 50.4123C27.4435 48.0294 29.1549 46.3417 31.4947 46.3533C33.5117 46.3637 34.4055 47.3361 34.2751 49.2971Z" fill="#285B72"/>
</g>
<defs>
<filter id="filter0_d" x="0" y="0" width="337" height="78" filterUnits="userSpaceOnUse" color-interpolation-filters="sRGB">
<feFlood flood-opacity="0" result="BackgroundImageFix"/>
<feColorMatrix in="SourceAlpha" type="matrix" values="0 0 0 0 0 0 0 0 0 0 0 0 0 0 0 0 0 0 127 0"/>
<feOffset dy="4"/>
<feGaussianBlur stdDeviation="2"/>
<feColorMatrix type="matrix" values="0 0 0 0 0 0 0 0 0 0 0 0 0 0 0 0 0 0 0.25 0"/>
<feBlend mode="normal" in2="BackgroundImageFix" result="effect1_dropShadow"/>
<feBlend mode="normal" in="SourceGraphic" in2="effect1_dropShadow" result="shape"/>
</filter>
<filter id="filter1_i" x="74.2773" y="23.9353" width="238.068" height="27.3812" filterUnits="userSpaceOnUse" color-interpolation-filters="sRGB">
<feFlood flood-opacity="0" result="BackgroundImageFix"/>
<feBlend mode="normal" in="SourceGraphic" in2="BackgroundImageFix" result="shape"/>
<feColorMatrix in="SourceAlpha" type="matrix" values="0 0 0 0 0 0 0 0 0 0 0 0 0 0 0 0 0 0 127 0" result="hardAlpha"/>
<feOffset dy="4"/>
<feGaussianBlur stdDeviation="2"/>
<feComposite in2="hardAlpha" operator="arithmetic" k2="-1" k3="1"/>
<feColorMatrix type="matrix" values="0 0 0 0 0 0 0 0 0 0 0 0 0 0 0 0 0 0 0.25 0"/>
<feBlend mode="normal" in2="shape" result="effect1_innerShadow"/>
</filter>
<filter id="filter2_i" x="20" y="17" width="42.0528" height="40.3045" filterUnits="userSpaceOnUse" color-interpolation-filters="sRGB">
<feFlood flood-opacity="0" result="BackgroundImageFix"/>
<feBlend mode="normal" in="SourceGraphic" in2="BackgroundImageFix" result="shape"/>
<feColorMatrix in="SourceAlpha" type="matrix" values="0 0 0 0 0 0 0 0 0 0 0 0 0 0 0 0 0 0 127 0" result="hardAlpha"/>
<feOffset dy="4"/>
<feGaussianBlur stdDeviation="2"/>
<feComposite in2="hardAlpha" operator="arithmetic" k2="-1" k3="1"/>
<feColorMatrix type="matrix" values="0 0 0 0 0 0 0 0 0 0 0 0 0 0 0 0 0 0 0.25 0"/>
<feBlend mode="normal" in2="shape" result="effect1_innerShadow"/>
</filter>
<linearGradient id="paint0_linear" x1="168.5" y1="5" x2="168.5" y2="65" gradientUnits="userSpaceOnUse">
<stop stop-color="#FFF946"/>
<stop offset="1" stop-color="#FFC828"/>
</linearGradient>
</defs>
</svg>
